PathFileType	4	(X/Y/Z)	TVC_20_BWA2_walk_RCNL2025.trc
DataRate	CameraRate	NumFrames	NumMarkers	Units	OrigDataRate	OrigDataStartFrame	OrigNumFrames
100	100	5	27	mm	100	28	221
Frame#	Time	R_Shoulder			L_Shoulder			C7			J_Notch			R_Elbow			L_Elbow			R_Wrist			L_Wrist			R_Asis			L_Asis			R_Psis			L_Psis			Sacral			Thoracic			Sternum			R_Thigh_Lateral			R_Knee_Lateral			R_Shank_Lateral			R_Ankle_Lateral			R_Heel			R_Toe			L_Thigh_Lateral			L_Knee_Lateral			L_Shank_Lateral			L_Ankle_Lateral			L_Heel			L_Toe		
		X1	Y1	Z1	X2	Y2	Z2	X3	Y3	Z3	X4	Y4	Z4	X5	Y5	Z5	X6	Y6	Z6	X7	Y7	Z7	X8	Y8	Z8	X9	Y9	Z9	X10	Y10	Z10	X11	Y11	Z11	X12	Y12	Z12	X13	Y13	Z13	X14	Y14	Z14	X15	Y15	Z15	X16	Y16	Z16	X17	Y17	Z17	X18	Y18	Z18	X19	Y19	Z19	X20	Y20	Z20	X21	Y21	Z21	X22	Y22	Z22	X23	Y23	Z23	X24	Y24	Z24	X25	Y25	Z25	X26	Y26	Z26	X27	Y27	Z27
28	0.27000000	-348.256317	1385.805054	161.524857	-410.765350	1437.314331	-199.101486	-407.438446	1463.659790	2.035315	-289.156830	1336.324219	-31.754990	-395.997009	1069.337524	238.174057	-484.393433	1154.164185	-343.084167	-238.457359	861.603271	215.552307	-352.543182	927.603241	-363.262604	-339.703430	1008.890320	91.081970	-347.390900	1014.950012	-185.613174	-494.147095	1011.418823	0.920316	-508.915558	999.038391	-89.103127	-501.531326	1005.228607	-44.091405	-521.412048	1239.013062	-29.062965	-277.660492	1195.319824	-54.544899	-340.555084	677.148987	152.586227	-316.639435	480.692932	72.410057	-370.338074	303.103607	124.257004	-399.076782	74.148819	38.063412	-448.315857	54.662582	-9.804103	-252.850311	35.755077	14.759969	-311.924316	653.680115	-269.439575	-239.566376	496.723358	-207.768784	-359.800720	361.559845	-252.741623	-533.674255	193.685730	-170.180908	-576.286072	216.980789	-129.202377	-453.962891	81.645241	-140.816803
29	0.28000000	-335.920349	1387.594727	162.016418	-398.284180	1438.321777	-198.499573	-395.186279	1465.043213	2.469681	-277.093262	1337.643555	-30.828196	-382.122253	1071.181885	239.343094	-472.658600	1155.063721	-341.909058	-222.077675	865.790283	214.678429	-345.169983	926.179901	-364.074173	-328.660553	1009.888367	92.482399	-334.868774	1016.506104	-184.177979	-482.536011	1012.723938	1.458308	-496.774506	1000.490723	-88.768890	-489.655258	1006.607330	-43.655291	-509.325165	1240.234497	-28.271078	-265.593903	1196.618286	-53.144012	-335.212341	677.128601	152.884827	-315.784424	480.603485	72.013763	-370.876617	303.593384	124.126503	-399.231262	74.248291	37.950520	-448.416382	54.723534	-9.986948	-252.942764	35.789761	14.991643	-292.372955	657.102783	-268.203094	-218.399734	501.400269	-205.607483	-332.916962	360.830475	-250.598190	-498.541260	184.691391	-167.827972	-542.161499	205.756149	-126.584702	-412.474426	77.854340	-138.920944
30	0.29000000	-323.604553	1389.037354	162.449646	-385.768372	1438.951538	-197.970047	-382.949066	1466.067261	2.838839	-265.032806	1338.582153	-29.933582	-368.284149	1072.735352	240.575638	-460.877747	1155.551514	-340.736633	-205.757324	869.775391	213.750053	-337.545181	924.568756	-364.846085	-317.641815	1010.527832	93.854729	-322.329956	1017.673096	-182.780304	-470.937103	1013.658997	1.947971	-484.652863	1001.543091	-88.462761	-477.794983	1007.601044	-43.257395	-497.266205	1241.131836	-27.550386	-253.539703	1197.524048	-51.758209	-330.042786	676.937012	153.205444	-315.003540	480.474121	71.633896	-371.497437	304.066010	123.989967	-399.398987	74.340858	37.807404	-448.511688	54.747269	-10.219296	-253.046112	35.815891	15.225216	-272.963501	660.261475	-266.980988	-197.955902	505.681854	-203.363998	-306.234222	359.631714	-248.429443	-462.643829	175.218353	-165.472168	-507.195251	193.913361	-123.937569	-370.393951	73.966049	-137.102173
31	0.30000000	-311.303772	1390.101562	162.828735	-373.214508	1439.188721	-197.510880	-370.717987	1466.710571	3.151596	-252.967529	1339.109619	-29.078222	-354.456787	1073.954590	241.862564	-449.062195	1155.619507	-339.567078	-189.488159	873.502441	212.772804	-329.655151	922.754028	-365.563278	-306.627319	1010.799072	95.195038	-309.774231	1018.420715	-181.431763	-459.341492	1014.204163	2.390992	-472.545380	1002.169189	-88.177521	-465.943436	1008.186676	-42.893264	-485.229065	1241.690796	-26.909693	-241.498779	1198.004761	-50.405571	-324.963898	676.579285	153.547028	-314.247498	480.294983	71.280167	-372.160889	304.511353	123.849892	-399.578094	74.425941	37.632702	-448.601074	54.734825	-10.505090	-253.160843	35.827595	15.452024	-253.778183	663.082886	-265.759613	-178.235031	509.498413	-201.055954	-279.768585	358.017609	-246.257004	-425.996033	165.481369	-163.136932	-471.391327	181.690948	-121.303497	-327.821320	70.149635	-135.352676
32	0.31000000	-299.015594	1390.768555	163.158005	-360.620483	1439.027588	-197.119522	-358.485291	1466.961304	3.416050	-240.890442	1339.206665	-28.268284	-340.615875	1074.807007	243.188293	-437.223328	1155.268066	-338.399109	-173.263336	876.921967	211.753304	-321.491943	920.725677	-366.207336	-295.599701	1010.703674	96.498138	-297.200531	1018.730652	-180.143616	-447.741425	1014.349060	2.787009	-460.445374	1002.354553	-87.909531	-454.093399	1008.351807	-42.561261	-473.207245	1241.903687	-26.359236	-229.470871	1198.041016	-49.101254	-319.884674	676.062561	153.908066	-313.456177	480.057404	70.962677	-372.813568	304.920776	123.711418	-399.764679	74.502968	37.427242	-448.684204	54.690384	-10.844153	-253.287125	35.818539	15.661392	-234.914246	665.494019	-264.527466	-159.233200	512.792053	-198.701309	-253.537094	356.048584	-244.102402	-388.625458	155.691223	-160.844101	-434.768982	169.328690	-118.724052	-284.855682	66.560280	-133.654312
